<svg width="64" height="64" viewBox="0 0 64 64" fill="none" xmlns="http://www.w3.org/2000/svg">
  <rect width="64" height="64" rx="18" fill="#5865F2"/>
  <path d="M43.74 21.6C40.94 20.3 38.25 19.6 35.62 19.35C35.24 20.04 34.82 20.97 34.53 21.7C31.72 21.28 28.93 21.28 26.18 21.7C25.88 20.97 25.45 20.04 25.07 19.35C22.43 19.6 19.74 20.31 16.95 21.61C11.81 29.37 10.41 36.93 11.11 44.38C14.85 47.18 18.47 48.88 22.03 49.99C22.91 48.78 23.7 47.5 24.38 46.15C23.09 45.66 21.86 45.06 20.68 44.36C20.99 44.13 21.3 43.89 21.59 43.65C28.72 46.99 36.47 46.99 43.51 43.65C43.81 43.89 44.11 44.13 44.43 44.36C43.25 45.06 42 45.66 40.72 46.15C41.4 47.5 42.18 48.78 43.07 49.99C46.64 48.88 50.26 47.18 54 44.37C54.82 35.73 52.62 28.24 43.74 21.6ZM25.46 39.78C23.32 39.78 21.57 37.78 21.57 35.34C21.57 32.9 23.28 30.9 25.46 30.9C27.64 30.9 29.39 32.9 29.35 35.34C29.35 37.78 27.64 39.78 25.46 39.78ZM39.64 39.78C37.5 39.78 35.75 37.78 35.75 35.34C35.75 32.9 37.46 30.9 39.64 30.9C41.82 30.9 43.57 32.9 43.53 35.34C43.53 37.78 41.82 39.78 39.64 39.78Z" fill="white"/>
</svg>
