<svg width="64" height="64" viewBox="0 0 64 64" fill="none" xmlns="http://www.w3.org/2000/svg">
  <rect width="64" height="64" rx="18" fill="#0F172A"/>
  <path d="M32 14C22.06 14 14 22.22 14 32.36C14 40.48 19.16 47.36 26.31 49.79C27.21 49.96 27.54 49.39 27.54 48.91C27.54 48.48 27.52 47.32 27.51 45.79C22.5 46.9 21.44 43.33 21.44 43.33C20.62 41.21 19.44 40.64 19.44 40.64C17.81 39.5 19.57 39.52 19.57 39.52C21.38 39.65 22.33 41.41 22.33 41.41C23.93 44.21 26.54 43.4 27.57 42.93C27.73 41.74 28.2 40.94 28.71 40.48C24.71 40.01 20.5 38.44 20.5 31.4C20.5 29.39 21.2 27.75 22.35 26.47C22.17 26 21.55 24.13 22.53 21.61C22.53 21.61 24.04 21.12 27.48 23.49C28.92 23.08 30.46 22.88 32 22.87C33.54 22.88 35.08 23.08 36.52 23.49C39.96 21.12 41.47 21.61 41.47 21.61C42.45 24.13 41.83 26 41.65 26.47C42.8 27.75 43.5 29.39 43.5 31.4C43.5 38.46 39.28 40 35.27 40.47C35.92 41.04 36.49 42.17 36.49 43.9C36.49 46.37 36.46 48.37 36.46 48.91C36.46 49.39 36.79 49.97 37.7 49.79C44.84 47.35 50 40.48 50 32.36C50 22.22 41.94 14 32 14Z" fill="#F8FAFC"/>
</svg>
