<svg width="64" height="64" viewBox="0 0 64 64" fill="none" xmlns="http://www.w3.org/2000/svg">
  <rect width="64" height="64" rx="18" fill="#0A66C2"/>
  <path d="M21.6 27.2H27V45H21.6V27.2ZM24.3 19C26 19 27.4 20.4 27.4 22.1C27.4 23.8 26 25.2 24.3 25.2C22.6 25.2 21.2 23.8 21.2 22.1C21.2 20.4 22.6 19 24.3 19ZM30.5 27.2H35.7V29.6H35.8C36.5 28.2 38.3 26.8 41 26.8C46.5 26.8 47.5 30.4 47.5 35.2V45H42.1V36.3C42.1 34.2 42.1 31.6 39.2 31.6C36.3 31.6 35.9 33.8 35.9 36.1V45H30.5V27.2Z" fill="white"/>
</svg>
