<svg width="64" height="64" viewBox="0 0 64 64" fill="none" xmlns="http://www.w3.org/2000/svg">
  <rect width="64" height="64" rx="18" fill="#102033"/>
  <path d="M32 12L47 18V29.5C47 39.55 40.87 48.65 32 52C23.13 48.65 17 39.55 17 29.5V18L32 12Z" fill="#2563EB"/>
  <path d="M32 17.5L41.5 21.3V30C41.5 37.35 37.72 43.86 32 47C26.28 43.86 22.5 37.35 22.5 30V21.3L32 17.5Z" fill="#60A5FA"/>
  <path d="M28 31V27.8C28 25.6 29.78 23.8 32 23.8C34.22 23.8 36 25.6 36 27.8V31" stroke="#F8FAFC" stroke-width="3" stroke-linecap="round"/>
  <rect x="26" y="30" width="12" height="10" rx="2.5" fill="#F8FAFC"/>
  <circle cx="32" cy="35" r="1.7" fill="#2563EB"/>
</svg>
