<svg width="64" height="64" viewBox="0 0 64 64" fill="none" xmlns="http://www.w3.org/2000/svg">
  <rect width="64" height="64" rx="18" fill="#102033"/>
  <path d="M32 14C25.9 14 22 19.1 22 27.2V36.8C22 44.9 25.9 50 32 50C38.1 50 42 44.9 42 36.8V27.2C42 19.1 38.1 14 32 14Z" fill="#F8FAFC"/>
  <path d="M25 32C20.7 34.2 18 38.4 18 43.2C18 45.85 20.15 48 22.8 48H27" fill="#60A5FA"/>
  <path d="M39 32C43.3 34.2 46 38.4 46 43.2C46 45.85 43.85 48 41.2 48H37" fill="#60A5FA"/>
  <path d="M26 24C26 18.8 28.3 15 32 15C35.7 15 38 18.8 38 24V33C38 36.3 35.31 39 32 39C28.69 39 26 36.3 26 33V24Z" fill="#111827"/>
  <circle cx="28.5" cy="25.5" r="1.7" fill="#F8FAFC"/>
  <circle cx="35.5" cy="25.5" r="1.7" fill="#F8FAFC"/>
  <path d="M29 32.5C30.6 34.2 33.4 34.2 35 32.5" stroke="#F8FAFC" stroke-width="2" stroke-linecap="round"/>
  <path d="M27 45H37" stroke="#FACC15" stroke-width="5" stroke-linecap="round"/>
</svg>
